<?xml version="1.0" standalone="no"?>
<!DOCTYPE svg PUBLIC "-//W3C//DTD SVG 20010904//EN"
 "http://www.w3.org/TR/2001/REC-SVG-20010904/DTD/svg10.dtd">
<svg version="1.0" xmlns="http://www.w3.org/2000/svg"
 width="2048.000000pt" height="2048.000000pt" viewBox="0 0 2048.000000 2048.000000"
 preserveAspectRatio="xMidYMid meet">

<g transform="translate(0.000000,2048.000000) scale(0.100000,-0.100000)"
fill="#000000" stroke="none">
<path d="M7350 16700 c-240 -62 -429 -237 -511 -475 -22 -63 -24 -86 -23 -225
1 -142 3 -161 27 -229 63 -174 207 -336 362 -405 22 -10 52 -24 68 -31 71 -34
298 -53 381 -31 33 8 44 -2 234 -224 64 -74 167 -190 230 -258 l115 -122 -19
-23 c-10 -12 -57 -62 -105 -112 -129 -134 -220 -245 -318 -390 -136 -201 -231
-368 -282 -498 -11 -29 -27 -65 -34 -82 -30 -64 -94 -256 -123 -370 -76 -291
-105 -546 -106 -912 0 -183 -4 -270 -11 -266 -5 4 -30 23 -55 43 -115 92 -229
150 -370 188 -82 22 -116 25 -250 26 -127 0 -171 -4 -245 -22 -102 -25 -188
-57 -227 -84 -14 -10 -29 -18 -33 -18 -12 0 -99 -63 -158 -114 -32 -28 -85
-84 -118 -123 -33 -40 -66 -73 -73 -73 -8 0 -37 19 -66 42 -56 44 -103 75
-132 84 -10 4 -18 10 -18 15 0 5 -6 9 -13 9 -7 0 -31 9 -53 19 -55 27 -155 58
-227 72 -77 15 -273 14 -358 -1 -306 -54 -554 -224 -716 -491 -45 -74 -83
-153 -83 -172 0 -7 -4 -17 -9 -22 -14 -15 -59 -209 -71 -305 -6 -47 -15 -281
-20 -520 -5 -239 -15 -604 -21 -810 -17 -544 -4 -719 68 -940 30 -94 85 -208
134 -282 49 -72 179 -201 255 -253 33 -22 61 -42 64 -45 11 -13 141 -71 213
-95 109 -36 220 -49 372 -41 169 8 248 28 410 106 121 58 214 125 321 230 l80
80 120 4 c114 5 178 14 271 37 39 11 44 9 85 -22 24 -19 45 -36 48 -39 21 -21
180 -99 252 -124 106 -36 194 -49 323 -50 162 -1 316 31 413 86 18 10 37 16
41 13 5 -2 11 -62 14 -132 7 -143 33 -303 72 -438 27 -94 159 -375 175 -375 6
0 10 -6 10 -13 0 -7 8 -22 18 -33 9 -10 37 -45 60 -76 48 -62 159 -171 238
-231 61 -47 202 -137 213 -137 5 0 11 -4 13 -8 4 -10 165 -88 200 -97 49 -13
50 -15 33 -281 -22 -335 -25 -686 -6 -739 22 -64 52 -127 85 -175 35 -52 99
-120 114 -120 6 0 12 -4 14 -8 5 -12 110 -61 164 -77 98 -28 237 -38 342 -25
196 24 283 60 382 160 78 78 103 118 146 235 17 46 19 84 19 448 l0 399 568 1
c498 2 567 0 568 -13 1 -8 0 -177 -1 -376 -2 -403 2 -435 66 -563 115 -231
344 -332 680 -302 136 12 203 35 306 102 116 77 186 176 229 329 24 82 24 135
-1 450 -28 356 -30 382 -46 494 -8 55 -11 103 -7 106 5 4 28 19 53 32 142 79
184 106 286 189 208 169 373 415 453 674 36 119 57 235 72 399 6 67 13 123 15
125 2 2 25 -2 51 -10 33 -10 97 -14 203 -13 136 1 165 4 242 27 107 33 186 69
262 121 117 81 108 79 158 43 23 -17 51 -39 61 -48 10 -9 39 -27 65 -40 26
-13 65 -35 87 -49 38 -25 168 -90 245 -123 19 -8 56 -24 81 -36 40 -17 131
-49 234 -80 140 -43 342 -71 507 -71 291 0 572 83 806 238 96 63 287 248 352
340 168 235 252 481 266 772 10 221 -26 387 -131 600 -20 41 -44 87 -52 101
-15 24 -15 28 14 70 17 24 47 87 66 140 179 477 -7 978 -459 1240 -45 27 -95
51 -169 84 -118 53 -460 145 -633 171 -164 24 -454 15 -607 -19 -192 -43 -275
-75 -536 -205 -3 -1 -9 41 -12 95 -7 117 -25 188 -72 286 -43 91 -116 184
-203 260 -66 57 -89 71 -167 109 -22 10 -48 23 -57 28 -10 6 -26 10 -36 10
-10 0 -22 4 -27 9 -17 15 -113 31 -189 31 l-74 0 -7 168 c-13 343 -60 616
-155 901 -72 219 -164 429 -259 589 -17 29 -31 54 -31 56 0 11 -136 225 -150
236 -3 3 -17 21 -30 40 -13 19 -41 56 -63 82 -21 26 -37 54 -35 62 2 8 166
179 365 379 l362 365 41 -14 c23 -8 75 -20 115 -26 127 -20 327 17 417 77 21
14 42 25 48 25 6 0 52 42 104 93 77 76 100 107 134 177 66 135 85 222 79 360
-14 322 -211 573 -522 667 -81 24 -256 24 -340 -1 -211 -61 -344 -167 -448
-356 -57 -105 -80 -195 -86 -351 l-6 -147 -381 -386 c-404 -409 -391 -398
-438 -354 -11 10 -32 24 -48 30 -15 7 -28 16 -28 20 0 5 -9 8 -19 8 -11 0 -21
3 -23 8 -4 10 -128 72 -144 72 -8 0 -14 5 -14 10 0 6 -8 10 -18 10 -10 0 -22
4 -27 9 -20 18 -210 82 -343 115 -223 56 -369 75 -672 86 -438 17 -795 -5
-1070 -67 -105 -23 -276 -72 -325 -93 -67 -28 -103 -44 -129 -56 -16 -8 -35
-14 -43 -14 -7 0 -13 -3 -13 -7 0 -9 -49 -33 -67 -33 -7 0 -13 -4 -13 -10 0
-5 -6 -10 -13 -10 -7 0 -22 -8 -33 -17 -28 -26 -69 -45 -87 -41 -9 1 -65 60
-124 129 -59 69 -155 179 -213 244 -102 115 -280 325 -280 330 0 1 4 15 10 31
50 145 12 381 -84 524 -178 267 -474 392 -756 320z m318 -216 c61 -20 91 -37
150 -84 57 -44 108 -113 97 -130 -3 -6 -1 -9 5 -8 15 4 53 -65 71 -127 22 -80
16 -206 -16 -295 -39 -109 -40 -115 -17 -126 19 -9 246 -258 356 -391 28 -34
103 -120 166 -190 63 -71 139 -157 169 -192 l55 -64 -40 -34 c-21 -19 -54 -48
-73 -64 -56 -50 -77 -54 -120 -20 -36 29 -120 121 -170 186 -12 17 -77 90
-144 163 -124 136 -161 185 -91 122 l39 -35 -34 37 c-19 21 -37 36 -40 33 -6
-7 -41 25 -41 38 0 6 10 2 23 -9 l22 -19 -19 22 c-10 13 -22 21 -26 18 -6 -4
-60 54 -130 140 -21 26 -22 28 -2 11 21 -18 28 -13 23 17 -1 4 13 29 31 55 18
26 32 50 30 55 -1 4 2 7 7 7 12 0 6 99 -6 111 -6 6 -35 -18 -80 -66 -38 -41
-68 -77 -66 -80 2 -3 0 -3 -4 0 -3 3 -20 -4 -37 -14 -124 -74 -340 -72 -476 6
-60 35 -90 61 -148 127 -89 101 -117 181 -116 326 1 109 21 188 65 252 11 14
19 30 19 35 0 4 30 37 67 71 71 67 159 116 234 132 57 12 212 3 267 -16z
m5897 11 c32 -9 85 -30 117 -47 71 -38 175 -145 212 -219 135 -271 5 -603
-276 -707 -126 -47 -275 -36 -397 29 -30 16 -60 29 -66 29 -7 0 -213 -202
-459 -450 -301 -304 -454 -450 -468 -450 -12 0 -52 31 -99 76 -64 62 -76 80
-69 94 9 17 766 772 866 863 28 26 56 47 63 47 14 0 15 -5 -16 81 -96 266 69
575 347 650 81 22 169 23 245 4z m-5694 -1012 c13 -16 12 -17 -3 -4 -17 13
-22 21 -14 21 2 0 10 -8 17 -17z m2880 -233 c319 -24 581 -87 819 -198 158
-73 397 -242 558 -395 126 -120 162 -160 231 -252 29 -38 59 -78 67 -88 8 -9
14 -20 14 -23 0 -2 8 -13 18 -24 82 -88 308 -562 376 -790 95 -317 134 -566
136 -861 l2 -184 -81 -41 c-44 -22 -89 -48 -99 -57 -10 -9 -23 -17 -28 -17 -5
0 7 14 26 32 l35 31 -33 -24 c-19 -13 -34 -28 -34 -34 0 -5 -28 -39 -62 -75
-35 -36 -80 -91 -101 -122 -37 -57 -56 -77 -35 -39 13 25 13 34 -1 25 -6 -3
-3 9 7 27 10 20 19 28 22 21 3 -10 7 -10 18 -1 8 6 14 16 14 21 0 6 -6 6 -14
-1 -10 -8 -16 -9 -21 -2 -4 7 -12 7 -23 2 -9 -5 -54 -16 -99 -25 -81 -15 -166
-46 -178 -66 -3 -5 -21 -10 -40 -10 -19 0 -37 -5 -40 -10 -4 -6 -28 -8 -58 -5
-37 4 -26 -1 38 -15 50 -11 101 -25 115 -30 l25 -10 -25 5 c-235 50 -387 56
-543 24 -56 -12 -112 -21 -124 -21 -13 0 -21 -4 -18 -8 3 -4 -10 -14 -28 -21
-17 -7 -54 -26 -80 -41 -53 -31 -61 -34 -51 -15 4 7 3 9 -2 4 -5 -5 -9 -12
-10 -15 -1 -7 -218 -227 -250 -253 -13 -11 -29 1 -107 78 -237 233 -415 312
-702 314 -281 3 -485 -78 -691 -274 -46 -43 -84 -75 -84 -69 0 6 35 43 78 84
42 40 66 64 52 53 -14 -11 -52 -45 -85 -77 l-60 -57 -75 45 c-41 25 -110 63
-153 85 -43 22 -75 44 -72 49 3 5 0 7 -7 5 -8 -3 -44 6 -80 19 -183 69 -429
111 -598 101 -300 -16 -469 -56 -690 -164 -63 -30 -121 -55 -127 -54 -7 0 -10
-4 -7 -9 3 -5 -3 -12 -15 -15 -12 -3 -21 -9 -21 -14 0 -5 -6 -9 -14 -9 -7 0
-19 -6 -25 -14 -6 -7 -29 -26 -51 -41 l-40 -28 -37 28 -38 28 29 -31 c17 -18
25 -32 20 -32 -17 0 -53 43 -63 75 -13 39 -37 184 -51 305 -15 123 -14 493 0
640 15 152 43 315 79 459 30 118 99 335 128 401 44 100 76 169 95 205 84 160
102 192 128 230 17 24 30 48 30 54 0 6 4 11 9 11 5 0 11 8 13 18 3 9 51 76
108 147 120 151 394 428 507 512 43 32 86 65 96 74 9 9 30 22 45 30 15 8 29
16 32 19 3 3 16 11 30 19 14 8 59 35 100 60 86 53 169 94 292 146 259 107 477
155 798 174 194 12 631 12 781 1z m2652 -2967 c56 -18 86 -32 83 -40 -3 -7 1
-10 10 -6 30 11 191 -135 180 -164 -3 -8 1 -10 11 -6 12 5 15 2 10 -10 -4 -12
-1 -17 9 -17 11 0 15 -6 11 -19 -3 -14 -1 -18 9 -14 8 3 14 -1 14 -10 0 -8 7
-28 15 -43 42 -82 45 -270 6 -382 -23 -67 -69 -145 -81 -137 -3 2 -26 -16 -50
-40 -24 -25 -40 -45 -36 -45 5 0 3 -7 -4 -15 -15 -18 -35 -20 -24 -3 4 7 3 8
-5 4 -6 -4 -9 -11 -6 -16 13 -21 -50 -45 -130 -50 -18 -1 -17 -2 4 -11 89 -35
165 -84 155 -100 -3 -5 1 -6 9 -3 18 6 72 -60 62 -76 -4 -6 -1 -9 6 -8 6 2 14
-3 17 -11 3 -9 0 -11 -9 -6 -8 5 -11 4 -6 -1 5 -5 14 -9 20 -9 17 0 56 -104
74 -198 21 -109 29 -580 14 -783 -27 -368 -63 -673 -98 -829 -19 -84 -76 -221
-90 -218 -6 1 -17 -5 -25 -15 -12 -15 -11 -16 5 -3 38 30 13 -10 -42 -67 -106
-108 -195 -142 -374 -142 -141 0 -266 23 -347 63 -36 17 -64 37 -63 43 1 6
-21 33 -50 60 l-52 49 50 -52 c27 -29 44 -53 38 -53 -20 0 -122 122 -149 176
-26 53 -36 86 -56 179 -18 85 -12 486 12 720 11 116 25 255 31 310 18 190 78
520 120 666 24 84 104 208 161 250 43 31 116 68 173 87 22 8 24 11 10 11 -34
2 -117 56 -181 117 -140 136 -190 360 -121 544 56 151 209 294 357 334 94 25
221 21 323 -11z m-6629 -271 c81 -29 132 -58 128 -72 -1 -6 2 -9 8 -5 11 7 57
-22 103 -64 19 -17 25 -31 21 -45 -4 -15 -3 -17 4 -7 12 17 24 -1 16 -26 -4
-13 -3 -15 4 -4 11 15 24 1 19 -21 -2 -7 -2 -10 0 -5 10 16 24 6 18 -13 -4
-14 -2 -20 7 -18 8 2 12 -6 10 -22 -1 -17 1 -21 7 -11 6 9 11 10 15 2 11 -17
46 -122 56 -168 14 -62 80 -786 79 -862 -2 -53 -4 -44 -11 49 -13 179 -58 576
-53 472 3 -51 7 -111 10 -135 l4 -42 -11 45 c-7 25 -18 51 -25 58 -7 7 -13 20
-13 28 0 8 -7 26 -16 39 -10 16 -15 39 -12 65 2 22 0 40 -5 40 -4 0 -6 4 -3 8
2 4 0 14 -6 22 -8 12 -9 12 -4 -2 3 -10 1 -18 -3 -18 -5 0 -11 6 -14 13 -3 9
-7 9 -19 -1 -25 -20 -30 -59 -13 -86 11 -16 13 -26 5 -31 -6 -3 -8 -10 -6 -14
5 -8 6 -28 7 -159 0 -40 2 -88 4 -105 2 -18 6 -68 10 -112 4 -44 9 -96 11
-115 2 -19 6 -96 9 -170 8 -189 16 -338 20 -358 1 -9 6 -48 10 -87 3 -38 10
-88 15 -110 5 -22 12 -74 15 -115 4 -41 14 -131 22 -200 25 -217 27 -322 8
-381 -21 -62 -103 -148 -170 -178 -69 -30 -202 -62 -320 -76 -103 -13 -117
-18 -158 -59 l-24 -24 26 -28 26 -27 -31 21 c-17 12 -48 43 -69 69 -53 66 -61
73 -39 35 19 -34 112 -126 149 -149 11 -6 16 -12 10 -12 -23 -1 -108 73 -150
129 -52 72 -82 146 -96 243 -11 84 -29 597 -29 877 0 246 -15 376 -47 397 -18
12 -29 13 -57 3 -58 -19 -86 -87 -100 -240 -5 -55 -12 -104 -61 -380 -61 -344
-87 -394 -254 -471 -138 -64 -194 -94 -218 -116 -10 -9 -4 -18 30 -44 23 -17
34 -29 25 -26 -9 3 -18 1 -20 -5 -4 -12 -118 89 -118 105 0 6 16 -8 36 -31 19
-23 41 -42 47 -42 6 0 -9 20 -33 45 -24 24 -47 42 -51 39 -13 -8 -45 48 -73
126 -58 160 -194 677 -210 795 -10 73 -25 114 -46 125 -51 27 -112 -5 -131
-70 -9 -30 -8 -55 5 -121 9 -46 18 -106 21 -134 2 -27 9 -90 14 -140 6 -49 13
-126 16 -170 4 -44 11 -105 16 -135 19 -112 39 -315 40 -404 3 -161 -43 -255
-154 -319 -70 -41 -277 -107 -380 -122 -47 -6 -105 -26 -120 -41 -4 -4 2 -17
12 -28 14 -14 17 -26 11 -35 -6 -11 -24 1 -79 56 -39 39 -71 76 -71 82 0 6 30
-20 66 -59 37 -38 70 -70 74 -70 4 0 -25 33 -64 72 -39 40 -74 73 -78 73 -33
0 -107 193 -130 337 -24 151 -7 1645 22 2009 18 220 81 360 230 510 98 98 163
139 295 184 77 27 249 32 338 10 117 -28 277 -110 262 -134 -2 -5 7 -19 22
-32 14 -13 48 -50 74 -82 27 -32 49 -54 49 -49 0 4 -32 43 -71 85 -39 42 -66
77 -61 77 25 0 157 -163 148 -185 -3 -8 0 -14 6 -12 17 3 74 -156 118 -327 22
-81 41 -151 44 -153 7 -7 21 29 63 167 106 349 150 451 250 580 58 74 130 137
188 164 171 80 202 87 360 82 100 -2 143 -8 189 -24z m5666 -42 c8 -5 11 -10
5 -10 -5 0 -17 5 -25 10 -8 5 -10 10 -5 10 6 0 17 -5 25 -10z m38 -4 c-7 -8
-15 -12 -17 -11 -5 6 10 25 20 25 5 0 4 -6 -3 -14z m25 -11 c-3 -9 -8 -14 -10
-11 -3 3 -2 9 2 15 9 16 15 13 8 -4z m-1992 -189 c75 -16 153 -52 144 -66 -3
-5 1 -7 9 -4 18 7 33 -4 103 -75 32 -32 52 -60 49 -68 -3 -8 -2 -11 4 -8 13 8
31 -36 106 -250 78 -224 118 -351 184 -575 65 -220 75 -245 91 -245 16 0 47
83 84 220 169 640 232 848 265 875 3 3 17 21 30 40 37 54 69 79 145 115 90 44
201 60 306 45 145 -21 349 -85 349 -111 0 -6 5 -7 11 -4 11 8 61 -34 54 -45
-2 -4 9 -22 26 -41 l30 -34 -26 38 c-36 48 -17 48 22 -1 73 -91 108 -196 106
-322 -1 -119 -39 -253 -155 -550 -43 -113 -98 -256 -120 -318 -29 -80 -44
-109 -50 -100 -7 9 -8 8 -4 -5 3 -10 -17 -73 -45 -145 -28 -70 -68 -170 -88
-222 -21 -52 -61 -151 -90 -220 -29 -69 -68 -163 -88 -210 -45 -110 -136 -283
-179 -341 -120 -164 -316 -278 -529 -308 -71 -10 -215 2 -295 25 -76 22 -151
55 -145 64 3 4 -3 7 -13 6 -9 0 -16 4 -15 11 2 7 -3 10 -11 7 -20 -8 -170 158
-212 235 -20 36 -60 120 -89 186 -29 66 -62 140 -73 165 -11 25 -35 81 -52
125 -18 44 -38 94 -45 110 -19 44 -70 170 -132 330 -30 77 -70 181 -90 230
-19 50 -52 142 -73 205 -38 116 -89 258 -154 425 -50 129 -70 239 -64 349 3
50 11 105 18 121 29 69 36 82 68 128 69 96 202 171 372 207 104 23 174 24 261
6z m-1631 -52 c173 -30 368 -111 495 -206 107 -81 239 -212 306 -306 33 -46
58 -86 55 -89 -2 -2 -28 30 -56 72 -75 111 -265 295 -361 349 -41 23 -31 13
41 -41 66 -50 116 -100 107 -109 -5 -6 38 -60 76 -93 9 -8 17 -22 17 -29 0 -7
7 -20 15 -28 8 -9 15 -26 15 -39 0 -13 5 -27 11 -31 6 -3 9 -15 6 -25 -3 -11
-1 -17 4 -13 5 3 9 -4 9 -16 0 -11 4 -28 10 -38 7 -13 48 -141 55 -172 1 -8
25 -141 31 -175 24 -141 11 -471 -25 -642 -38 -174 -143 -403 -248 -534 -65
-82 -170 -192 -225 -235 -79 -62 -281 -156 -419 -195 -107 -30 -126 -32 -300
-35 -156 -3 -201 0 -285 17 -54 11 -109 22 -122 23 -12 2 -25 6 -29 9 -3 4
-15 7 -25 7 -10 0 -26 4 -36 9 -56 27 -109 48 -142 56 -23 6 -73 36 -111 67
-25 21 -49 38 -53 38 -9 0 -30 17 -68 57 -17 18 -34 30 -38 28 -4 -3 -27 24
-50 60 -42 64 -62 86 -39 43 29 -56 92 -139 98 -131 3 5 21 -11 40 -36 28 -38
29 -42 7 -22 -14 14 -26 21 -26 17 0 -13 91 -116 102 -116 6 0 4 8 -3 18 -8 9
6 1 31 -19 25 -20 45 -42 45 -49 0 -7 23 -33 50 -57 67 -61 30 -35 -74 52
-122 102 -247 264 -313 405 -142 301 -187 516 -175 820 13 312 118 598 304
830 76 94 216 231 230 225 8 -2 12 -1 9 4 -14 21 131 118 263 176 156 68 275
100 441 119 65 8 254 -3 350 -20z m6370 -153 c241 -50 479 -140 641 -244 60
-38 189 -170 189 -193 0 -8 3 -14 8 -14 12 0 44 -79 58 -145 49 -224 -39 -457
-207 -547 -37 -19 -58 -23 -134 -23 -99 1 -106 3 -360 125 -268 129 -393 180
-440 180 -23 0 -40 -24 -29 -41 7 -13 72 -39 95 -39 11 0 19 -4 19 -10 0 -5 6
-10 13 -10 11 0 66 -23 252 -104 96 -42 370 -180 373 -187 2 -5 8 -9 13 -9 37
0 227 -170 306 -275 57 -75 111 -203 129 -305 76 -437 -184 -898 -606 -1077
-160 -68 -258 -87 -450 -87 -132 -1 -187 4 -275 21 -242 49 -545 175 -725 300
-63 44 -159 138 -160 157 0 5 25 -18 56 -52 31 -35 64 -66 73 -71 9 -5 -15 23
-54 62 -38 40 -74 72 -80 72 -15 0 -76 108 -71 127 2 10 -1 16 -8 15 -6 -1
-10 10 -9 28 2 20 -1 25 -6 17 -14 -24 -24 53 -25 208 -1 80 1 125 4 100 5
-44 6 -43 13 26 7 77 38 187 68 245 10 20 41 63 70 95 l52 59 -59 -60 c-32
-33 -65 -69 -72 -80 -7 -11 -5 -5 4 14 23 48 102 130 142 147 45 18 138 18
193 -1 24 -9 64 -29 90 -45 25 -17 66 -41 90 -53 105 -56 134 -72 137 -79 2
-5 12 -8 22 -8 10 0 20 -3 22 -8 4 -8 133 -72 147 -72 5 0 11 -4 13 -8 4 -11
134 -72 187 -88 50 -16 127 -18 135 -5 4 5 2 11 -4 13 -5 1 -11 13 -13 26 -2
12 -10 28 -17 35 -12 10 -12 9 -1 -5 14 -19 2 -25 -14 -9 -6 5 -64 26 -130 46
-115 36 -196 68 -353 141 -40 19 -77 34 -82 34 -20 0 -146 62 -217 106 -46 29
-96 72 -137 119 -71 81 -130 164 -123 171 2 3 16 -14 30 -38 51 -86 257 -286
257 -250 0 5 -18 19 -41 31 -56 32 -192 191 -237 278 -20 39 -38 70 -40 68 -2
-2 4 -17 13 -35 9 -18 14 -34 11 -37 -5 -5 -28 45 -40 88 -6 18 -5 21 3 9 14
-20 12 -3 -4 40 -7 19 -14 28 -15 20 -4 -40 -20 40 -30 147 -24 263 33 465
183 643 143 170 305 259 576 316 104 21 446 13 581 -15z m-1600 -176 c-19 -19
-38 -35 -44 -35 -6 0 7 18 29 40 21 22 41 37 44 35 2 -3 -11 -21 -29 -40z
m-3860 -367 c21 -46 41 -94 44 -108 l6 -25 -11 25 c-11 24 -79 167 -87 183 -2
4 -1 7 3 7 3 0 23 -37 45 -82z m157 -530 c-3 -7 -5 -2 -5 12 0 14 2 19 5 13 2
-7 2 -19 0 -25z m10 -100 c-3 -7 -5 -2 -5 12 0 14 2 19 5 13 2 -7 2 -19 0 -25z
m-3680 -290 c-3 -7 -5 -2 -5 12 0 14 2 19 5 13 2 -7 2 -19 0 -25z m-1070 -10
c-3 -8 -6 -5 -6 6 -1 11 2 17 5 13 3 -3 4 -12 1 -19z m1049 -168 c-8 -63 -14
-101 -15 -85 -2 41 23 245 27 220 1 -11 -4 -72 -12 -135z m3691 118 c-3 -7 -5
-2 -5 12 0 14 2 19 5 13 2 -7 2 -19 0 -25z m-4699 -198 c0 -19 -6 0 -13 45
-17 104 -17 151 1 60 7 -38 13 -86 12 -105z m4689 128 c-3 -7 -5 -2 -5 12 0
14 2 19 5 13 2 -7 2 -19 0 -25z m-10 -55 c-3 -10 -5 -4 -5 12 0 17 2 24 5 18
2 -7 2 -21 0 -30z m-10 -45 c-3 -8 -6 -5 -6 6 -1 11 2 17 5 13 3 -3 4 -12 1
-19z m-10 -40 c-3 -8 -6 -5 -6 6 -1 11 2 17 5 13 3 -3 4 -12 1 -19z m-10 -40
c-3 -8 -6 -5 -6 6 -1 11 2 17 5 13 3 -3 4 -12 1 -19z m-4640 -40 c-2 -13 -4
-5 -4 17 -1 22 1 32 4 23 2 -10 2 -28 0 -40z m8634 25 c-12 -20 -14 -14 -5 12
4 9 9 14 11 11 3 -2 0 -13 -6 -23z m-7654 -35 c-2 -13 -4 -5 -4 17 -1 22 1 32
4 23 2 -10 2 -28 0 -40z m3627 -45 c-63 -160 -140 -295 -231 -404 -76 -92
-270 -270 -238 -219 6 10 4 12 -11 6 -15 -6 -14 -3 5 18 30 32 51 35 25 4
l-19 -23 22 18 c12 11 20 24 17 30 -2 7 22 34 53 62 32 27 70 63 85 80 72 80
100 108 88 92 -7 -9 -10 -20 -8 -23 6 -5 48 49 48 61 0 4 -7 1 -17 -6 -15 -13
-15 -12 -5 8 16 28 34 40 26 16 -5 -16 -4 -16 10 1 18 23 21 40 5 30 -6 -3 -3
9 6 27 22 43 30 51 21 22 -4 -13 -4 -23 -1 -23 8 0 108 211 125 263 6 21 14
36 17 34 2 -3 -8 -36 -23 -74z m4010 23 c-3 -15 -8 -25 -11 -23 -2 3 -1 17 3
31 3 15 8 25 11 23 2 -3 1 -17 -3 -31z m-8580 -181 c10 -60 30 -186 47 -280
16 -93 28 -192 27 -220 l-1 -50 -4 45 c-3 42 -70 466 -93 589 -5 30 -9 66 -9
80 2 31 8 -2 33 -164z m922 33 c-9 -56 -19 -104 -23 -107 -3 -3 -3 9 1 28 3
18 11 74 18 125 7 50 14 83 16 73 2 -10 -4 -64 -12 -119z m7641 90 c-3 -8 -6
-5 -6 6 -1 11 2 17 5 13 3 -3 4 -12 1 -19z m-10 -50 c-3 -7 -5 -2 -5 12 0 14
2 19 5 13 2 -7 2 -19 0 -25z m-7660 -70 c-3 -8 -6 -5 -6 6 -1 11 2 17 5 13 3
-3 4 -12 1 -19z m1200 0 c-3 -8 -6 -5 -6 6 -1 11 2 17 5 13 3 -3 4 -12 1 -19z
m10 -60 c-3 -7 -5 -2 -5 12 0 14 2 19 5 13 2 -7 2 -19 0 -25z m6430 -50 c-3
-7 -5 -2 -5 12 0 14 2 19 5 13 2 -7 2 -19 0 -25z m-6420 -25 c-3 -10 -5 -2 -5
17 0 19 2 27 5 18 2 -10 2 -26 0 -35z m-1252 -57 c-26 -55 -87 -117 -150 -156
-54 -32 -64 -34 -154 -36 l-96 -2 95 7 c95 8 177 35 151 50 -8 6 -3 14 16 26
l28 18 -19 -21 c-11 -12 -15 -22 -9 -22 13 0 45 35 38 42 -3 3 4 13 15 23 11
10 20 15 20 10 0 -4 7 -2 15 5 8 7 15 17 15 22 0 6 -8 4 -17 -3 -13 -11 -13
-8 2 12 13 18 22 23 27 15 4 -6 12 2 19 22 6 18 13 31 16 28 3 -2 -3 -20 -12
-40z m1244 -263 c-62 -173 -212 -271 -454 -293 -129 -13 -286 8 -320 43 -7 7
-3 7 10 2 144 -55 395 -49 527 14 24 11 32 18 18 15 l-25 -6 27 19 c15 10 51
35 80 57 39 28 47 32 29 12 -14 -14 -20 -26 -13 -26 16 0 56 54 42 58 -8 3 -8
8 1 18 6 8 15 11 20 8 5 -3 22 21 36 53 24 50 28 75 33 178 l5 120 3 -105 c2
-87 -1 -114 -19 -167z m-1734 107 c3 -5 2 -10 -4 -10 -5 0 -13 5 -16 10 -3 6
-2 10 4 10 5 0 13 -4 16 -10z m84 -26 c10 -9 -35 -3 -49 6 -11 8 -7 9 15 4 17
-4 32 -8 34 -10z m2092 -31 c13 -16 12 -17 -3 -4 -10 7 -18 15 -18 17 0 8 8 3
21 -13z m2243 -56 l7 -38 -36 3 c-27 2 -33 5 -23 13 7 5 14 17 16 25 4 15 23
43 27 38 1 -2 5 -20 9 -41z m195 -91 c24 -43 38 -75 32 -72 -23 14 -10 -14 30
-66 56 -72 106 -124 154 -160 26 -19 18 -9 -22 28 -61 59 -153 169 -152 182 0
4 14 -11 31 -33 18 -22 73 -80 122 -129 50 -49 85 -86 79 -82 -20 11 -15 1 9
-20 19 -15 20 -16 9 -1 -8 10 -9 17 -3 17 11 0 27 -19 27 -32 0 -3 4 -10 9
-15 5 -5 6 -3 2 5 -11 19 -1 15 61 -25 32 -21 77 -47 100 -57 24 -10 40 -23
37 -27 -3 -5 1 -7 8 -4 7 3 36 -4 63 -14 29 -12 42 -21 30 -21 -11 -1 2 -10
30 -20 28 -10 44 -19 37 -19 -11 -1 -11 -3 0 -14 15 -15 94 -57 107 -57 5 0
26 -7 47 -17 22 -9 52 -18 69 -20 16 -2 53 -12 80 -22 49 -19 77 -24 195 -36
30 -3 89 -10 130 -16 95 -12 160 -15 160 -9 0 3 34 7 76 8 41 1 79 4 84 7 5 3
11 1 15 -5 3 -5 24 -8 46 -7 22 2 42 0 45 -5 3 -4 16 -8 29 -8 13 0 28 -7 33
-16 5 -9 11 -15 13 -14 11 4 38 -13 33 -21 -3 -6 5 -7 20 -3 22 5 26 3 26 -17
1 -28 24 -62 35 -51 5 4 6 0 3 -9 -4 -9 -2 -22 3 -30 5 -9 2 -23 -7 -38 -9
-13 -11 -21 -6 -17 14 9 20 -44 7 -67 -7 -13 -6 -20 3 -25 9 -6 6 -15 -13 -32
-14 -13 -23 -30 -21 -37 3 -7 -1 -18 -8 -25 -13 -13 -16 -21 -16 -39 0 -5 -4
-8 -8 -5 -5 3 -15 -7 -23 -22 -8 -15 -31 -44 -51 -64 -21 -20 -38 -41 -38 -47
0 -6 -7 -11 -16 -11 -9 0 -12 -5 -8 -12 5 -7 2 -9 -9 -5 -11 4 -18 -1 -22 -14
-4 -12 -13 -18 -20 -15 -9 3 -12 0 -8 -10 3 -8 2 -14 -3 -12 -13 3 -83 -70
-75 -79 3 -4 -3 -1 -13 7 -11 8 -17 10 -13 3 4 -6 0 -18 -8 -26 -8 -9 -15 -20
-15 -26 0 -6 -4 -10 -9 -9 -5 2 -29 -13 -52 -32 -24 -19 -45 -35 -48 -36 -3 0
-28 -10 -54 -22 -27 -12 -53 -22 -58 -22 -5 0 -9 -4 -9 -8 0 -10 -60 -45 -60
-35 0 4 -7 0 -14 -10 -8 -10 -24 -20 -37 -22 -13 -3 -25 -9 -27 -15 -2 -6 -7
-8 -12 -5 -5 3 -16 -2 -24 -11 -9 -8 -16 -12 -16 -7 0 4 -5 0 -11 -10 -6 -9
-14 -15 -20 -12 -5 4 -12 0 -15 -9 -3 -8 -12 -17 -20 -20 -8 -3 -12 -1 -9 4 3
5 -10 3 -30 -6 -20 -8 -41 -12 -47 -8 -7 4 -8 3 -4 -4 4 -7 0 -12 -11 -13 -17
-1 -17 -2 0 -6 9 -2 17 -8 17 -13 0 -5 -13 -5 -30 0 -16 5 -30 6 -30 3 0 -3
-6 0 -14 6 -10 9 -16 8 -25 -3 -7 -8 -19 -12 -27 -9 -7 3 -17 -2 -20 -11 -3
-9 -10 -13 -15 -10 -5 3 -7 9 -4 14 5 7 -95 5 -175 -4 -97 -12 -113 -15 -123
-25 -8 -8 -7 -11 4 -11 8 0 21 6 28 13 10 10 11 8 5 -7 -7 -18 -3 -18 82 -12
49 4 107 9 129 12 22 3 64 5 93 5 38 -1 52 3 52 14 0 7 5 17 12 21 6 4 8 3 4
-4 -9 -15 66 -11 82 5 7 6 26 10 42 8 17 -2 57 7 92 22 35 14 77 27 93 28 17
1 43 8 58 14 16 6 33 11 39 11 18 0 98 43 98 52 0 5 4 7 9 4 5 -3 12 1 15 10
4 9 9 14 13 11 3 -4 19 5 35 18 16 14 36 25 43 25 8 0 18 6 22 14 10 17 69 47
76 39 4 -3 9 2 13 11 4 9 18 23 33 31 14 8 43 30 64 49 21 20 42 36 47 36 11
0 35 41 32 53 -1 5 2 6 7 2 6 -3 18 9 27 27 9 18 41 57 71 88 29 30 53 60 53
67 0 7 7 13 15 13 8 0 15 9 15 20 0 21 11 38 43 68 9 9 17 21 17 26 0 5 11 33
25 63 14 29 24 57 21 62 -3 4 1 17 8 27 10 12 11 24 5 36 -6 11 -4 21 6 31 8
8 11 17 8 21 -3 3 2 8 11 12 11 4 15 13 11 25 -4 13 -1 19 9 19 9 0 16 8 16
18 1 35 37 93 98 156 34 35 62 71 62 79 0 19 24 39 36 29 4 -4 2 2 -6 12 -14
18 -14 19 9 6 24 -12 24 -13 18 -139 -8 -163 -48 -379 -92 -492 -61 -159 -159
-301 -297 -435 -270 -261 -601 -414 -1020 -473 -269 -37 -451 -45 -1023 -46
-897 0 -1267 34 -1604 150 -180 62 -208 75 -190 87 10 7 8 8 -8 3 -14 -4 -47
7 -100 34 -79 40 -137 79 -100 67 11 -4 16 -2 12 5 -4 5 -15 7 -24 4 -42 -13
-266 189 -385 349 -54 72 -136 235 -170 336 -38 116 -65 264 -70 390 -3 72 -2
98 3 70 4 -25 9 -38 10 -30 1 15 33 32 121 66 25 10 65 29 90 42 25 14 67 36
95 50 27 14 55 31 63 38 18 18 37 20 87 9 19 -4 7 5 -30 23 -77 39 -63 41 19
3 34 -16 95 -39 134 -52 45 -14 67 -26 59 -31 -8 -5 -9 -8 0 -8 6 0 20 -3 30
-6 15 -5 15 -4 3 5 -13 9 -13 11 0 10 8 0 24 -4 35 -9 l20 -9 -20 -1 c-22 -2
90 -40 118 -40 10 0 15 -5 12 -10 -9 -14 75 -48 136 -55 28 -3 76 -13 108 -21
123 -34 575 -28 619 8 6 6 12 7 12 3 0 -4 6 -3 13 3 7 6 28 12 45 14 18 1 32
5 32 8 0 3 26 11 57 19 32 7 70 22 85 32 14 10 33 19 42 19 9 0 16 4 16 9 0 7
27 19 46 19 11 1 160 86 166 96 5 6 8 7 8 1 0 -5 5 -2 11 8 5 9 14 17 20 17 5
0 54 45 109 100 56 55 107 100 115 100 8 0 32 18 55 41 25 25 46 39 55 35 8
-3 15 -1 15 4 0 6 9 10 21 10 11 0 17 -4 14 -10 -3 -6 1 -7 9 -4 20 8 20 8 -1
47 -15 30 -15 31 0 18 24 -19 21 -10 -18 62 -19 35 -35 67 -35 72 0 12 2 9 49
-79z m-899 66 c0 -5 -12 -15 -27 -23 -16 -8 -30 -17 -33 -20 -10 -12 -195
-102 -249 -120 -75 -26 -76 -17 -1 11 33 12 59 25 57 27 -3 2 -23 -4 -46 -13
-23 -9 -44 -15 -46 -12 -4 4 200 92 220 94 6 1 18 2 28 3 9 0 17 5 17 11 0 5
-8 7 -17 4 -15 -5 -15 -4 -3 4 8 6 17 9 21 6 10 -6 59 17 59 28 0 4 5 8 10 8
6 0 10 -4 10 -8z m610 -26 c0 -2 -8 -10 -17 -17 -16 -13 -17 -12 -4 4 13 16
21 21 21 13z m-1970 -42 c0 -2 -13 2 -30 11 -16 9 -30 18 -30 21 0 2 14 -2 30
-11 17 -9 30 -18 30 -21z m2135 18 c-1 -2 1 -18 5 -37 7 -31 6 -34 -10 -25
-10 6 -25 23 -33 39 -15 30 -15 30 13 28 16 -1 27 -3 25 -5z m-195 -16 c0 -2
-8 -10 -17 -17 -16 -13 -17 -12 -4 4 13 16 21 21 21 13z m-4605 -125 c-47
-144 -161 -236 -353 -286 -61 -16 -257 -21 -304 -8 -16 5 39 8 130 9 119 0
168 4 202 17 l45 16 -40 -5 c-35 -4 -31 -1 25 19 94 33 173 87 215 149 23 33
34 44 30 28 -5 -18 -4 -22 4 -15 16 16 51 123 53 164 l1 36 4 -38 c2 -21 -3
-60 -12 -86z m4615 105 c0 -2 -8 -10 -17 -17 -16 -13 -17 -12 -4 4 13 16 21
21 21 13z m-1845 -36 c3 -6 -1 -7 -9 -4 -18 7 -21 14 -7 14 6 0 13 -4 16 -10z
m1795 7 c0 -2 -12 -14 -27 -28 l-28 -24 24 28 c23 25 31 32 31 24z m-910 -47
c-8 -5 -19 -10 -25 -10 -5 0 -3 5 5 10 8 5 20 10 25 10 6 0 3 -5 -5 -10z
m-723 -16 c-3 -3 -12 -4 -19 -1 -8 3 -5 6 6 6 11 1 17 -2 13 -5z m653 -4 c-14
-4 -34 -8 -45 -8 -16 0 -15 2 5 8 14 4 34 8 45 8 16 0 15 -2 -5 -8z m-590 -10
c20 -6 21 -8 5 -8 -11 0 -29 3 -40 8 -25 11 1 11 35 0z m618 -5 c-106 -39
-400 -51 -528 -21 l-65 15 55 -7 c101 -13 430 -6 490 11 69 19 97 20 48 2z
m862 -8 c0 -2 -15 -16 -32 -33 l-33 -29 29 33 c28 30 36 37 36 29z m-2747 -14
c-7 -2 -19 -2 -25 0 -7 3 -2 5 12 5 14 0 19 -2 13 -5z m-46 -9 c-3 -3 -12 -4
-19 -1 -8 3 -5 6 6 6 11 1 17 -2 13 -5z m2713 -47 c0 -2 -10 -12 -22 -23 l-23
-19 19 23 c18 21 26 27 26 19z m-5149 -167 c30 -16 50 -30 46 -30 -11 0 -107
49 -107 55 0 8 5 6 61 -25z m382 -17 c-7 -2 -21 -2 -30 0 -10 3 -4 5 12 5 17
0 24 -2 18 -5z m7662 -123 c3 -5 1 -10 -4 -10 -6 0 -11 5 -11 10 0 6 2 10 4
10 3 0 8 -4 11 -10z m-4224 -20 c20 -6 70 -15 110 -20 l74 -9 -75 4 c-41 2
-95 10 -120 18 -52 17 -43 22 11 7z m2569 -5 c19 -7 28 -13 20 -13 -8 0 -31 6
-50 13 -19 7 -28 13 -20 13 8 0 31 -6 50 -13z m83 -22 c-7 -2 -21 -2 -30 0
-10 3 -4 5 12 5 17 0 24 -2 18 -5z m-6768 -23 c10 -11 16 -20 13 -20 -3 0 -13
9 -23 20 -10 11 -16 20 -13 20 3 0 13 -9 23 -20z m4368 13 c-13 -2 -33 -2 -45
0 -13 2 -3 4 22 4 25 0 35 -2 23 -4z m2495 0 c-10 -2 -28 -2 -40 0 -13 2 -5 4
17 4 22 1 32 -1 23 -4z m-107 -1330 c13 -16 12 -17 -3 -4 -10 7 -18 15 -18 17
0 8 8 3 21 -13z m788 -200 c6 -43 15 -132 21 -198 5 -66 19 -230 31 -365 11
-135 19 -277 17 -315 -10 -159 -105 -277 -257 -320 -120 -34 -315 -25 -416 19
-111 50 -187 153 -206 280 -5 34 -6 194 -2 366 4 168 9 293 11 278 3 -25 6
-26 46 -23 34 3 60 -5 126 -37 62 -30 96 -40 136 -41 30 -1 54 -6 54 -12 0 -5
4 -4 9 4 6 10 22 12 56 8 51 -7 99 -32 90 -48 -4 -5 -2 -8 4 -7 5 2 19 -14 29
-34 11 -21 16 -35 11 -32 -5 3 -9 1 -9 -4 0 -6 7 -12 15 -16 10 -4 14 -13 10
-28 -8 -31 -8 -57 -1 -91 4 -15 8 -72 10 -127 2 -75 0 -103 -10 -111 -8 -6
-14 -17 -14 -23 -1 -30 -97 -106 -113 -89 -4 3 -12 1 -19 -4 -18 -15 -89 -28
-165 -32 -12 -1 -43 -21 -69 -46 -44 -44 -46 -47 -28 -60 11 -8 23 -15 28 -15
5 0 17 -6 25 -14 27 -24 111 -47 175 -48 65 0 194 36 252 71 53 32 101 100
119 170 14 55 16 119 12 505 -3 387 -1 516 8 516 2 0 8 -35 14 -77z m-3146 10
c-19 -4 -23 -11 -23 -38 0 -29 8 -42 48 -77 26 -24 67 -63 92 -88 50 -50 178
-119 228 -123 12 -1 22 -4 22 -8 0 -4 10 -9 23 -13 29 -7 103 -75 111 -101 22
-77 29 -295 13 -396 -11 -64 -60 -117 -127 -134 -3 -1 -18 -8 -35 -15 -16 -7
-43 -14 -60 -16 -105 -12 -134 -18 -172 -34 -23 -10 -46 -27 -52 -38 -9 -18
-7 -24 17 -39 15 -10 39 -25 55 -33 18 -9 23 -16 16 -21 -7 -4 13 -13 44 -19
78 -18 247 8 332 50 52 26 66 39 108 104 75 116 84 160 92 451 3 138 11 268
17 290 6 22 13 72 17 110 l7 70 8 -55 c4 -30 6 -221 4 -425 -3 -366 -3 -370
-27 -418 -73 -147 -186 -207 -390 -207 -214 1 -344 68 -416 215 -24 48 -30 75
-33 150 -4 97 23 653 38 770 5 39 10 76 10 83 0 7 12 11 28 11 23 -2 24 -2 5
-6z"/>
<path d="M7215 15622 c11 -13 29 -28 40 -34 21 -11 18 -8 -30 32 -29 24 -29
24 -10 2z"/>
<path d="M7917 15404 c23 -28 50 -57 60 -65 10 -8 -1 9 -24 37 -23 28 -50 57
-60 65 -10 8 1 -9 24 -37z"/>
<path d="M8240 15376 c0 -2 8 -10 18 -17 15 -13 16 -12 3 4 -13 16 -21 21 -21
13z"/>
<path d="M8240 15036 c0 -2 8 -10 18 -17 15 -13 16 -12 3 4 -13 16 -21 21 -21
13z"/>
<path d="M13109 15573 c-13 -16 -12 -17 4 -4 9 7 17 15 17 17 0 8 -8 3 -21
-13z"/>
<path d="M12955 15418 l-110 -113 113 110 c61 60 112 111 112 112 0 8 -13 -5
-115 -109z"/>
<path d="M12765 15230 c-26 -27 -52 -47 -57 -44 -5 3 -7 0 -6 -8 2 -7 -3 -12
-10 -10 -8 1 -11 -1 -8 -6 7 -12 -228 -244 -238 -235 -4 4 -6 1 -4 -7 2 -8 -3
-14 -9 -12 -7 1 -12 -4 -10 -10 1 -7 -4 -12 -11 -10 -6 1 -11 -4 -10 -10 2 -7
-4 -11 -12 -10 -8 2 -12 0 -8 -4 4 -4 3 -14 -4 -23 -6 -9 90 85 215 209 125
124 227 226 227 227 0 7 -10 -1 -55 -47z"/>
<path d="M12140 14767 c0 -2 15 -16 33 -33 l32 -29 -29 33 c-28 30 -36 37 -36
29z"/>
<path d="M12230 14700 c-9 -6 -10 -10 -3 -10 6 0 15 5 18 10 8 12 4 12 -15 0z"/>
<path d="M12060 14696 c0 -2 8 -10 18 -17 15 -13 16 -12 3 4 -13 16 -21 21
-21 13z"/>
<path d="M8565 13890 c-3 -6 1 -7 9 -4 18 7 21 14 7 14 -6 0 -13 -4 -16 -10z"/>
<path d="M11089 13872 c-25 -15 -77 -56 -115 -91 -38 -36 -60 -58 -49 -51 11
8 43 35 70 60 28 26 71 59 98 74 26 15 47 30 47 32 0 6 -2 5 -51 -24z"/>
<path d="M8530 13869 c0 -5 5 -7 10 -4 6 3 10 8 10 11 0 2 -4 4 -10 4 -5 0
-10 -5 -10 -11z"/>
<path d="M8690 13836 c-57 -12 -158 -64 -181 -93 -10 -13 -6 -12 16 4 60 41
122 67 200 84 44 9 67 17 50 17 -16 0 -55 -5 -85 -12z"/>
<path d="M8470 13829 c0 -5 5 -7 10 -4 6 3 10 8 10 11 0 2 -4 4 -10 4 -5 0
-10 -5 -10 -11z"/>
<path d="M8755 13825 c-273 -51 -445 -269 -445 -565 0 -111 15 -174 60 -259
117 -219 362 -334 617 -288 197 36 376 216 424 426 16 69 12 214 -6 279 -54
183 -167 312 -337 383 -90 38 -194 46 -313 24z m18 -124 c39 -15 69 -65 69
-115 0 -105 -101 -206 -206 -206 -39 0 -51 5 -87 40 -40 38 -42 41 -35 86 18
138 150 236 259 195z"/>
<path d="M9033 13829 c14 -8 22 -8 30 0 8 8 3 11 -18 11 -26 -1 -28 -2 -12
-11z"/>
<path d="M11205 13828 c-22 -5 -44 -13 -50 -19 -7 -7 -1 -7 17 0 15 6 58 13
95 16 l68 5 -60 -14 c-73 -17 -201 -76 -235 -108 -161 -151 -226 -460 -139
-660 43 -100 98 -168 191 -238 89 -67 174 -98 292 -107 256 -20 487 137 576
389 29 82 36 228 16 305 -28 106 -82 201 -156 274 -128 127 -218 161 -430 164
-80 1 -163 -2 -185 -7z m143 -134 c100 -70 51 -244 -85 -301 -93 -38 -194 16
-193 104 2 69 62 167 122 196 43 21 127 22 156 1z"/>
<path d="M9075 13820 c-3 -6 1 -7 9 -4 18 7 21 14 7 14 -6 0 -13 -4 -16 -10z"/>
<path d="M11820 13826 c0 -2 8 -10 18 -17 15 -13 16 -12 3 4 -13 16 -21 21
-21 13z"/>
<path d="M8420 13790 c-19 -16 -30 -30 -24 -30 5 0 23 14 39 30 37 38 30 38
-15 0z"/>
<path d="M9270 13817 c0 -2 24 -24 53 -48 28 -24 46 -36 38 -26 -16 20 -91 81
-91 74z"/>
<path d="M11058 13753 c-21 -14 -38 -30 -38 -34 0 -5 8 -2 18 6 9 7 28 23 42
34 35 28 22 25 -22 -6z"/>
<path d="M11910 13735 c19 -19 36 -35 39 -35 3 0 -10 16 -29 35 -19 19 -36 35
-39 35 -3 0 10 -16 29 -35z"/>
<path d="M8470 13731 c0 -5 -15 -26 -33 -46 -19 -20 -41 -51 -51 -68 -16 -31
-16 -31 1 -7 10 14 37 46 61 72 25 27 39 49 33 53 -6 3 -11 2 -11 -4z"/>
<path d="M9385 13700 c10 -11 20 -20 23 -20 3 0 -3 9 -13 20 -10 11 -20 20
-23 20 -3 0 3 -9 13 -20z"/>
<path d="M8323 13688 c-15 -20 -25 -38 -20 -38 3 0 12 11 21 25 17 26 16 35
-1 13z"/>
<path d="M11950 13686 c0 -2 8 -10 18 -17 15 -13 16 -12 3 4 -13 16 -21 21
-21 13z"/>
<path d="M8245 13559 c-4 -6 -5 -12 -2 -15 2 -3 7 2 10 11 7 17 1 20 -8 4z"/>
<path d="M12004 12902 c-35 -29 -87 -102 -72 -102 15 0 48 20 34 20 -5 0 5 14
22 30 18 17 29 30 27 30 -3 0 -1 9 5 20 13 24 11 25 -16 2z"/>
<path d="M12723 12323 c8 -13 -67 -86 -77 -76 -4 5 -6 1 -4 -7 2 -8 -2 -14 -7
-13 -6 1 -12 -8 -12 -19 -1 -12 2 -17 6 -12 4 5 31 34 60 66 36 38 48 58 40
64 -7 4 -10 3 -6 -3z"/>
<path d="M12577 12143 c-4 -3 -7 -11 -7 -17 0 -6 5 -5 12 2 6 6 9 14 7 17 -3
3 -9 2 -12 -2z"/>
<path d="M11843 12073 c9 -2 25 -2 35 0 9 3 1 5 -18 5 -19 0 -27 -2 -17 -5z"/>
<path d="M12003 12073 c15 -2 39 -2 55 0 15 2 2 4 -28 4 -30 0 -43 -2 -27 -4z"/>
<path d="M11740 12060 c-20 -6 -21 -8 -5 -8 11 0 34 4 50 8 27 7 27 8 5 8 -14
0 -36 -4 -50 -8z"/>
<path d="M10608 12053 c7 -3 16 -2 19 1 4 3 -2 6 -13 5 -11 0 -14 -3 -6 -6z"/>
<path d="M10655 12040 c11 -5 27 -9 35 -9 9 0 8 4 -5 9 -11 5 -27 9 -35 9 -9
0 -8 -4 5 -9z"/>
<path d="M11688 12043 c7 -3 16 -2 19 1 4 3 -2 6 -13 5 -11 0 -14 -3 -6 -6z"/>
<path d="M11578 12003 c7 -3 16 -2 19 1 4 3 -2 6 -13 5 -11 0 -14 -3 -6 -6z"/>
<path d="M10816 11976 c78 -44 159 -110 261 -209 87 -85 105 -98 118 -87 8 7
12 17 8 24 -3 6 -2 8 2 3 9 -8 85 60 85 77 0 5 -17 -6 -37 -24 -24 -22 -21
-17 10 16 26 27 44 53 40 57 -3 4 -22 4 -41 1 -27 -5 -33 -4 -27 6 6 10 4 12
-8 7 -9 -3 -19 -2 -22 3 -3 5 -13 9 -23 9 -21 0 -92 11 -110 17 -7 2 -23 -1
-34 -7 -19 -10 -18 -14 33 -67 l54 -57 -57 54 c-33 31 -54 59 -51 67 3 8 0 14
-7 14 -6 0 -8 -4 -5 -10 3 -5 2 -10 -4 -10 -11 0 -25 19 -26 35 -1 6 -6 9 -13
8 -6 -2 -46 20 -88 47 -42 28 -82 50 -88 50 -6 0 7 -11 30 -24z"/>
<path d="M9230 11930 c8 -5 20 -10 25 -10 6 0 3 5 -5 10 -8 5 -19 10 -25 10
-5 0 -3 -5 5 -10z"/>
<path d="M11365 11870 c-15 -16 -33 -26 -39 -23 -6 3 -8 2 -3 -2 4 -5 -3 -19
-15 -32 -12 -13 -17 -23 -11 -23 6 0 32 25 58 55 50 59 56 73 10 25z"/>
<path d="M9418 11840 c41 -22 93 -54 117 -70 24 -17 50 -30 57 -30 7 0 2 6
-12 13 -14 8 -50 29 -80 49 -60 39 -135 78 -147 78 -4 0 25 -18 65 -40z"/>
<path d="M12790 11497 c0 -12 81 -96 114 -119 17 -11 10 -2 -16 21 -26 23 -59
56 -73 74 -13 18 -25 29 -25 24z"/>
<path d="M13520 11310 c-9 -6 -10 -10 -3 -10 6 0 15 5 18 10 8 12 4 12 -15 0z"/>
<path d="M13278 11273 c7 -3 16 -2 19 1 4 3 -2 6 -13 5 -11 0 -14 -3 -6 -6z"/>
<path d="M13731 10864 c0 -11 3 -14 6 -6 3 7 2 16 -1 19 -3 4 -6 -2 -5 -13z"/>
<path d="M13723 9715 c0 -22 2 -30 4 -17 2 12 2 30 0 40 -3 9 -5 -1 -4 -23z"/>
<path d="M13712 9630 c0 -19 2 -27 5 -17 2 9 2 25 0 35 -3 9 -5 1 -5 -18z"/>
<path d="M13702 9565 c0 -16 2 -22 5 -12 2 9 2 23 0 30 -3 6 -5 -1 -5 -18z"/>
<path d="M13692 9470 c0 -14 2 -19 5 -12 2 6 2 18 0 25 -3 6 -5 1 -5 -13z"/>
<path d="M13681 9414 c0 -11 3 -14 6 -6 3 7 2 16 -1 19 -3 4 -6 -2 -5 -13z"/>
<path d="M13671 9334 c0 -11 3 -14 6 -6 3 7 2 16 -1 19 -3 4 -6 -2 -5 -13z"/>
<path d="M13661 9274 c0 -11 3 -14 6 -6 3 7 2 16 -1 19 -3 4 -6 -2 -5 -13z"/>
<path d="M13439 8883 c-13 -16 -12 -17 4 -4 16 13 21 21 13 21 -2 0 -10 -8
-17 -17z"/>
<path d="M12787 8869 c7 -7 15 -10 18 -7 3 3 -2 9 -12 12 -14 6 -15 5 -6 -5z"/>
<path d="M13360 8840 c-8 -5 -10 -10 -5 -10 6 0 17 5 25 10 8 5 11 10 5 10 -5
0 -17 -5 -25 -10z"/>
<path d="M7138 11635 c9 -26 18 -42 20 -37 3 9 -26 82 -33 82 -2 0 4 -20 13
-45z"/>
<path d="M7172 11525 c0 -16 2 -22 5 -12 2 9 2 23 0 30 -3 6 -5 -1 -5 -18z"/>
<path d="M7182 11455 c0 -16 2 -22 5 -12 2 9 2 23 0 30 -3 6 -5 -1 -5 -18z"/>
<path d="M7193 11365 c0 -22 2 -30 4 -17 2 12 2 30 0 40 -3 9 -5 -1 -4 -23z"/>
<path d="M5631 11304 c0 -11 3 -14 6 -6 3 7 2 16 -1 19 -3 4 -6 -2 -5 -13z"/>
<path d="M5651 11224 c0 -11 3 -14 6 -6 3 7 2 16 -1 19 -3 4 -6 -2 -5 -13z"/>
<path d="M5607 9229 c7 -7 15 -10 18 -7 3 3 -2 9 -12 12 -14 6 -15 5 -6 -5z"/>
<path d="M12436 10725 c-9 -26 -7 -32 5 -12 6 10 9 21 6 23 -2 3 -7 -2 -11
-11z"/>
<path d="M12366 10545 c-9 -26 -7 -32 5 -12 6 10 9 21 6 23 -2 3 -7 -2 -11
-11z"/>
<path d="M12286 10325 c-9 -26 -7 -32 5 -12 6 10 9 21 6 23 -2 3 -7 -2 -11
-11z"/>
<path d="M10615 9120 c10 -11 20 -20 23 -20 3 0 -3 9 -13 20 -10 11 -20 20
-23 20 -3 0 3 -9 13 -20z"/>
<path d="M10948 8873 c7 -3 16 -2 19 1 4 3 -2 6 -13 5 -11 0 -14 -3 -6 -6z"/>
<path d="M7674 11288 l-29 -33 33 29 c30 28 37 36 29 36 -2 0 -16 -15 -33 -32z"/>
<path d="M8472 10954 c-133 -22 -250 -103 -330 -226 -61 -95 -75 -156 -76
-333 -1 -184 12 -236 80 -313 55 -62 91 -83 139 -80 34 2 35 4 30 33 l-6 30
17 -30 c25 -43 66 -96 71 -91 3 3 -8 22 -25 43 -28 37 -67 121 -59 129 2 3 12
-16 21 -40 27 -69 68 -118 127 -151 45 -24 66 -29 124 -29 92 -1 139 17 201
76 96 90 132 218 115 402 -6 57 -17 122 -24 144 -17 50 -73 139 -96 152 -9 5
-11 10 -4 10 6 0 26 -19 44 -42 46 -61 56 -69 30 -26 -14 23 -23 58 -26 96 -5
92 -47 160 -133 217 -52 35 -128 45 -220 29z m95 -230 c-3 -3 -12 -4 -19 -1
-8 3 -5 6 6 6 11 1 17 -2 13 -5z m116 -1 c-7 -2 -19 -2 -25 0 -7 3 -2 5 12 5
14 0 19 -2 13 -5z m42 -13 c3 -6 -1 -7 -9 -4 -18 7 -21 14 -7 14 6 0 13 -4 16
-10z m-275 -31 c-36 -26 -119 -121 -120 -137 -1 -4 -8 -29 -16 -57 -11 -40
-14 -43 -10 -14 3 30 13 56 45 124 2 6 -4 3 -14 -5 -39 -32 3 25 52 72 33 30
58 46 76 46 26 0 25 -1 -13 -29z m-153 -316 c-2 -16 -4 -5 -4 22 0 28 2 40 4
28 2 -13 2 -35 0 -50z m-10 -95 c-2 -13 -4 -3 -4 22 0 25 2 35 4 23 2 -13 2
-33 0 -45z m10 -85 c-3 -10 -5 -4 -5 12 0 17 2 24 5 18 2 -7 2 -21 0 -30z m10
-45 c-3 -8 -6 -5 -6 6 -1 11 2 17 5 13 3 -3 4 -12 1 -19z"/>
<path d="M8392 10656 c-26 -25 -45 -47 -42 -50 3 -2 28 18 57 45 28 27 47 49
42 49 -6 0 -31 -20 -57 -44z"/>
<path d="M8857 10035 c-9 -19 -15 -35 -12 -35 7 0 37 61 33 66 -3 2 -12 -12
-21 -31z"/>
<path d="M7476 9547 c3 -10 9 -15 12 -12 3 3 0 11 -7 18 -10 9 -11 8 -5 -6z"/>
<path d="M7600 9351 c0 -5 5 -13 10 -16 6 -3 10 -2 10 4 0 5 -4 13 -10 16 -5
3 -10 2 -10 -4z"/>
<path d="M7749 9186 c14 -14 29 -26 34 -26 13 0 -12 29 -37 42 -19 10 -18 8 3
-16z"/>
<path d="M15970 11225 c30 -30 57 -55 59 -55 3 0 -19 25 -49 55 -30 30 -57 55
-59 55 -3 0 19 -25 49 -55z"/>
<path d="M15006 10721 c5 -5 34 -17 64 -26 30 -10 86 -31 124 -47 38 -15 71
-26 73 -24 2 2 -44 23 -104 46 -120 48 -171 64 -157 51z"/>
<path d="M15287 10609 c7 -7 15 -10 18 -7 3 3 -2 9 -12 12 -14 6 -15 5 -6 -5z"/>
<path d="M15325 10590 c3 -5 11 -10 16 -10 6 0 29 -9 51 -20 23 -11 43 -18 45
-16 4 3 -102 56 -113 56 -3 0 -2 -4 1 -10z"/>
<path d="M15450 10535 c0 -7 61 -37 66 -33 2 3 -12 12 -31 21 -19 9 -35 15
-35 12z"/>
<path d="M13931 10514 c0 -11 3 -14 6 -6 3 7 2 16 -1 19 -3 4 -6 -2 -5 -13z"/>
<path d="M15530 10496 c0 -5 109 -56 119 -56 8 1 -44 29 -86 46 -18 8 -33 12
-33 10z"/>
<path d="M15999 10483 c-13 -16 -12 -17 4 -4 16 13 21 21 13 21 -2 0 -10 -8
-17 -17z"/>
<path d="M15670 10430 c8 -5 22 -9 30 -9 10 0 8 3 -5 9 -27 12 -43 12 -25 0z"/>
<path d="M15915 10140 c44 -44 82 -80 85 -80 2 0 -31 36 -75 80 -44 44 -82 80
-85 80 -2 0 31 -36 75 -80z"/>
<path d="M14670 9830 c8 -5 20 -10 25 -10 6 0 3 5 -5 10 -8 5 -19 10 -25 10
-5 0 -3 -5 5 -10z"/>
<path d="M14734 9805 c32 -19 133 -55 150 -54 6 0 -23 13 -64 28 -114 43 -117
43 -86 26z"/>
<path d="M15000 9710 c8 -5 20 -10 25 -10 6 0 3 5 -5 10 -8 5 -19 10 -25 10
-5 0 -3 -5 5 -10z"/>
<path d="M13842 9345 c0 -16 2 -22 5 -12 2 9 2 23 0 30 -3 6 -5 -1 -5 -18z"/>
<path d="M13852 9290 c0 -14 2 -19 5 -12 2 6 2 18 0 25 -3 6 -5 1 -5 -13z"/>
<path d="M15762 9035 c-6 -14 -18 -25 -26 -25 -9 0 -20 -9 -26 -19 -14 -26
-13 -31 5 -25 8 4 12 10 9 15 -3 5 2 6 10 3 9 -3 17 2 21 15 3 12 11 19 16 16
5 -4 9 5 9 19 0 32 -4 33 -18 1z"/>
<path d="M15663 8945 c0 -11 4 -12 14 -4 7 6 13 13 13 15 0 2 -6 4 -13 4 -8 0
-14 -7 -14 -15z"/>
<path d="M14124 8891 c7 -11 46 -35 46 -28 0 3 -12 12 -26 22 -15 9 -23 12
-20 6z"/>
<path d="M14180 8856 c0 -3 14 -12 30 -21 17 -9 30 -13 30 -11 0 3 -13 12 -30
21 -16 9 -30 13 -30 11z"/>
<path d="M14250 8816 c0 -3 14 -12 30 -21 17 -9 30 -13 30 -11 0 3 -13 12 -30
21 -16 9 -30 13 -30 11z"/>
<path d="M14327 8769 c7 -7 15 -10 18 -7 3 3 -2 9 -12 12 -14 6 -15 5 -6 -5z"/>
<path d="M14410 8730 c8 -5 20 -10 25 -10 6 0 3 5 -5 10 -8 5 -19 10 -25 10
-5 0 -3 -5 5 -10z"/>
<path d="M14460 8710 c8 -5 20 -10 25 -10 6 0 3 5 -5 10 -8 5 -19 10 -25 10
-5 0 -3 -5 5 -10z"/>
<path d="M14738 8613 c7 -3 16 -2 19 1 4 3 -2 6 -13 5 -11 0 -14 -3 -6 -6z"/>
<path d="M9542 9224 c-57 -57 -100 -104 -96 -104 9 0 162 150 186 183 10 15
18 26 16 26 -2 -1 -49 -48 -106 -105z"/>
<path d="M6069 9263 c-13 -16 -12 -17 4 -4 9 7 17 15 17 17 0 8 -8 3 -21 -13z"/>
<path d="M7225 8894 c-16 -14 -21 -21 -10 -15 30 14 61 40 50 41 -5 0 -23 -12
-40 -26z"/>
<path d="M8198 8493 c6 -2 18 -2 25 0 6 3 1 5 -13 5 -14 0 -19 -2 -12 -5z"/>
<path d="M7910 7527 c0 -2 15 -16 33 -33 l32 -29 -29 33 c-28 30 -36 37 -36
29z"/>
<path d="M8050 7378 c41 -45 50 -53 50 -45 0 2 -21 23 -47 47 l-48 45 45 -47z"/>
<path d="M8135 7301 c19 -22 55 -46 55 -38 0 3 -17 17 -37 33 -31 23 -34 24
-18 5z"/>
<path d="M8212 7244 c10 -10 20 -16 22 -13 3 3 -5 11 -17 18 -21 13 -21 12 -5
-5z"/>
<path d="M10623 7073 c-10 -16 -13 -16 -22 -3 -9 13 -11 13 -11 -2 0 -13 11
-16 65 -15 46 1 65 5 65 14 0 7 -5 13 -11 13 -5 0 -7 -4 -4 -10 9 -15 -4 -12
-21 5 -20 20 -46 19 -61 -2z"/>
<path d="M10765 7080 c-3 -5 -1 -10 4 -10 6 0 11 5 11 10 0 6 -2 10 -4 10 -3
0 -8 -4 -11 -10z"/>
<path d="M10493 7066 c-4 -5 -2 -6 4 -3 5 3 22 -1 37 -8 24 -13 27 -13 23 -1
-4 9 1 16 11 19 9 2 -2 4 -26 3 -24 0 -46 -5 -49 -10z"/>
<path d="M9200 8965 c-14 -8 -20 -14 -14 -15 5 0 19 7 30 15 24 18 16 19 -16
0z"/>
<path d="M9150 8940 c-9 -6 -10 -10 -3 -10 6 0 15 5 18 10 8 12 4 12 -15 0z"/>
<path d="M5245 8725 c-28 -29 -78 -65 -114 -83 -35 -18 -59 -32 -53 -32 37 0
178 93 206 135 28 43 15 36 -39 -20z"/>
<path d="M11789 5773 l-24 -28 28 24 c15 14 27 26 27 28 0 8 -8 1 -31 -24z"/>
<path d="M8725 5801 c21 -24 75 -66 75 -58 0 3 -21 22 -47 43 -27 21 -39 28
-28 15z"/>
</g>
</svg>
